<?xml version="1.0" standalone="no"?>
<!DOCTYPE svg PUBLIC "-//W3C//DTD SVG 20010904//EN"
 "http://www.w3.org/TR/2001/REC-SVG-20010904/DTD/svg10.dtd">
<svg version="1.0" xmlns="http://www.w3.org/2000/svg"
 width="200.000000pt" height="200.000000pt" viewBox="0 0 200.000000 200.000000"
 preserveAspectRatio="xMidYMid meet">

<g transform="translate(0.000000,200.000000) scale(0.100000,-0.100000)"
fill="#000000" stroke="none">
<path d="M810 1955 c-530 -107 -868 -627 -756 -1162 75 -357 365 -651 728
-738 220 -53 495 -15 690 96 283 159 454 417 498 749 34 251 -65 559 -242 752
-47 51 -125 118 -138 118 -4 0 -26 -24 -48 -54 l-40 -53 44 -38 c70 -58 150
-161 194 -250 47 -95 56 -122 75 -230 50 -275 -48 -562 -259 -757 -96 -88
-247 -165 -378 -192 -536 -111 -1024 305 -995 849 7 126 25 199 73 303 102
223 304 391 540 452 87 23 248 31 350 17 l60 -9 12 49 c6 26 14 57 18 69 5 19
-1 22 -65 32 -91 15 -278 14 -361 -3z"/>
<path d="M360 1442 c-20 -7 -10 -21 20 -27 58 -13 60 -23 60 -310 0 -157 4
-276 11 -300 15 -56 91 -127 155 -146 27 -8 85 -14 129 -14 94 1 159 25 216
82 41 39 39 39 54 -37 19 -94 94 -173 199 -210 92 -33 140 -27 247 28 52 26
109 53 127 59 l32 11 0 121 0 120 30 16 c55 28 34 35 -105 35 -113 0 -135 -2
-135 -15 0 -8 8 -15 19 -15 10 0 30 -9 45 -21 24 -19 26 -26 26 -106 0 -83 -1
-86 -34 -119 -32 -32 -38 -34 -105 -34 -172 0 -251 110 -238 334 7 142 60 251
140 293 34 17 171 23 215 9 26 -9 82 -89 82 -118 0 -10 6 -18 14 -18 14 0 26
85 26 184 l0 49 -32 -8 c-41 -10 -56 -10 -143 0 -109 12 -216 -18 -284 -79
-13 -11 -41 -48 -62 -80 l-39 -59 0 144 c0 157 7 185 53 207 54 26 29 33 -110
30 -98 -2 -138 -6 -141 -15 -2 -8 5 -13 18 -13 40 0 88 -30 99 -62 7 -19 11
-124 11 -262 0 -220 -1 -234 -22 -276 -32 -63 -91 -95 -178 -95 -83 0 -143 33
-180 97 -24 42 -25 50 -28 263 -4 258 1 292 46 320 17 11 31 25 32 30 0 9
-244 15 -270 7z"/>
</g>
</svg>
